<svg xmlns="http://www.w3.org/2000/svg" viewBox="0 0 3000 3000">
  <!-- Sfondo della mappa -->
  <rect width="3000" height="3000" fill="#2d4a2d" />
  
  <!-- Terreno vario -->
  <g fill-opacity="0.2">
    <!-- Zone boschive -->
    <circle cx="600" cy="600" r="450" fill="#1a3a1a" />
    <circle cx="2400" cy="600" r="350" fill="#1a3a1a" />
    <circle cx="600" cy="2400" r="350" fill="#1a3a1a" />
    <circle cx="2400" cy="2400" r="450" fill="#1a3a1a" />
    
    <!-- Deserto -->
    <path d="M1200,1200 Q1500,900 1800,1200 Q2100,1500 1800,1800 Q1500,2100 1200,1800 Q900,1500 1200,1200 Z" fill="#aa8833" />
    
    <!-- Lago -->
    <circle cx="1500" cy="700" r="250" fill="#3377aa" />
  </g>
  
  <!-- Strade/percorsi -->
  <g fill="#555" stroke="#444" stroke-width="2">
    <path d="M0,1500 H3000" stroke="#777" stroke-width="10" stroke-opacity="0.5" />
    <path d="M1500,0 V3000" stroke="#777" stroke-width="10" stroke-opacity="0.5" />
    <path d="M0,0 L3000,3000" stroke="#777" stroke-width="5" stroke-opacity="0.3" />
    <path d="M3000,0 L0,3000" stroke="#777" stroke-width="5" stroke-opacity="0.3" />
  </g>
  
  <!-- Elementi di copertura -->
  <g fill="#3a4a3a" stroke="#2a3a2a" stroke-width="2">
    <!-- Edifici grandi città centrale -->
    <rect x="1400" y="1400" width="200" height="200" rx="5" />
    <rect x="1300" y="1450" width="80" height="80" rx="3" />
    <rect x="1620" y="1450" width="80" height="80" rx="3" />
    <rect x="1450" y="1300" width="80" height="80" rx="3" />
    <rect x="1450" y="1620" width="80" height="80" rx="3" />
    
    <!-- Villaggi agli angoli -->
    <g>
      <!-- Villaggio Nord-Ovest -->
      <rect x="200" y="200" width="120" height="120" rx="5" />
      <rect x="350" y="180" width="70" height="70" rx="3" />
      <rect x="180" y="350" width="70" height="70" rx="3" />
      
      <!-- Villaggio Nord-Est -->
      <rect x="2680" y="200" width="120" height="120" rx="5" />
      <rect x="2580" y="180" width="70" height="70" rx="3" />
      <rect x="2750" y="350" width="70" height="70" rx="3" />
      
      <!-- Villaggio Sud-Ovest -->
      <rect x="200" y="2680" width="120" height="120" rx="5" />
      <rect x="350" y="2750" width="70" height="70" rx="3" />
      <rect x="180" y="2580" width="70" height="70" rx="3" />
      
      <!-- Villaggio Sud-Est -->
      <rect x="2680" y="2680" width="120" height="120" rx="5" />
      <rect x="2580" y="2750" width="70" height="70" rx="3" />
      <rect x="2750" y="2580" width="70" height="70" rx="3" />
    </g>
    
    <!-- Compounds intermedi -->
    <rect x="1000" y="600" width="150" height="150" rx="5" />
    <rect x="1850" y="600" width="150" height="150" rx="5" />
    <rect x="600" y="1000" width="150" height="150" rx="5" />
    <rect x="2250" y="1000" width="150" height="150" rx="5" />
    <rect x="1000" y="2250" width="150" height="150" rx="5" />
    <rect x="1850" y="2250" width="150" height="150" rx="5" />
    <rect x="600" y="1850" width="150" height="150" rx="5" />
    <rect x="2250" y="1850" width="150" height="150" rx="5" />
  </g>
  
  <!-- Dettagli ambientali -->
  <g>
    <!-- Casse di loot sparse -->
    <g fill="#cc8833" stroke="#aa6611" stroke-width="1">
      <!-- Loot centrale superiore -->
      <rect x="1480" y="980" width="40" height="40" rx="3" />
      
      <!-- Loot centrale destro -->
      <rect x="1980" y="1480" width="40" height="40" rx="3" />
      
      <!-- Loot centrale inferiore -->
      <rect x="1480" y="1980" width="40" height="40" rx="3" />
      
      <!-- Loot centrale sinistro -->
      <rect x="980" y="1480" width="40" height="40" rx="3" />
      
      <!-- Loot negli insediamenti -->
      <rect x="240" y="240" width="40" height="40" rx="3" />
      <rect x="2720" y="240" width="40" height="40" rx="3" />
      <rect x="240" y="2720" width="40" height="40" rx="3" />
      <rect x="2720" y="2720" width="40" height="40" rx="3" />
    </g>
    
    <!-- Barriere e rocce -->
    <g fill="#777" stroke="#555" stroke-width="1">
      <!-- Coperture improvvisate -->
      <circle cx="800" cy="800" r="40" />
      <circle cx="2200" cy="800" r="40" />
      <circle cx="800" cy="2200" r="40" />
      <circle cx="2200" cy="2200" r="40" />
      
      <!-- Rocce sparse -->
      <circle cx="1200" cy="500" r="30" />
      <circle cx="1800" cy="500" r="25" />
      <circle cx="500" cy="1200" r="35" />
      <circle cx="2500" cy="1200" r="28" />
      <circle cx="1200" cy="2500" r="32" />
      <circle cx="1800" cy="2500" r="25" />
      <circle cx="500" cy="1800" r="30" />
      <circle cx="2500" cy="1800" r="35" />
    </g>
  </g>
  
  <!-- Zona iniziale sicura (cerchio esterno) -->
  <circle cx="1500" cy="1500" r="1450" fill="none" stroke="#ffffff" stroke-width="5" stroke-opacity="0.2" stroke-dasharray="30,20" />
  
  <!-- Zona attiva (cerchio interno) -->
  <circle cx="1500" cy="1500" r="1000" fill="none" stroke="#ff3333" stroke-width="8" stroke-opacity="0.3" />
  
  <!-- Punti di spawn casuali -->
  <g fill="#ffcc00" fill-opacity="0.3">
    <circle cx="300" cy="300" r="30" />
    <circle cx="2700" cy="300" r="30" />
    <circle cx="300" cy="2700" r="30" />
    <circle cx="2700" cy="2700" r="30" />
    <circle cx="1500" cy="300" r="30" />
    <circle cx="300" cy="1500" r="30" />
    <circle cx="2700" cy="1500" r="30" />
    <circle cx="1500" cy="2700" r="30" />
    <circle cx="1100" cy="900" r="30" />
    <circle cx="1900" cy="900" r="30" />
    <circle cx="900" cy="1100" r="30" />
    <circle cx="2100" cy="1100" r="30" />
    <circle cx="900" cy="1900" r="30" />
    <circle cx="2100" cy="1900" r="30" />
    <circle cx="1100" cy="2100" r="30" />
    <circle cx="1900" cy="2100" r="30" />
  </g>
  
  <!-- Griglia sottile per riferimento -->
  <g stroke="#fff" stroke-width="0.5" stroke-opacity="0.05">
    <path d="M0,600 H3000 M0,1200 H3000 M0,1800 H3000 M0,2400 H3000" />
    <path d="M600,0 V3000 M1200,0 V3000 M1800,0 V3000 M2400,0 V3000" />
  </g>
</svg>